HIERARCHY
ROOT Hips
{
    OFFSET 0.000000 0.000000 0.000000
    CHANNELS 6 Xposition Yposition Zposition Zrotation Xrotation Yrotation
    JOINT Spine
    {
        OFFSET 0.000001 7.292995 0.000000
        CHANNELS 3 Zrotation Xrotation Yrotation
        JOINT Spine1
        {
            OFFSET -0.000000 20.255388 0.000001
            CHANNELS 3 Zrotation Xrotation Yrotation
            JOINT Neck
            {
                OFFSET 0.000001 20.786594 0.000000
                CHANNELS 3 Zrotation Xrotation Yrotation
                JOINT Head
                {
                    OFFSET 0.000003 12.530788 1.776080
                    CHANNELS 3 Zrotation Xrotation Yrotation
                    End Site
                    {
                        OFFSET 0.000000 17.760757 0.000000
                    }
                }
            }
            JOINT LeftShoulder
            {
                OFFSET 3.550532 15.465697 -0.908801
                CHANNELS 3 Zrotation Xrotation Yrotation
                JOINT LeftArm
                {
                    OFFSET 12.513301 -0.000005 0.000001
                    CHANNELS 3 Zrotation Xrotation Yrotation
                    JOINT LeftForeArm
                    {
                        OFFSET 24.225992 0.000005 0.000000
                        CHANNELS 3 Zrotation Xrotation Yrotation
                        JOINT LeftHand
                        {
                            OFFSET 20.711395 -0.000004 0.000000
                            CHANNELS 3 Zrotation Xrotation Yrotation
                            JOINT LeftHandThumb1
                            {
                                OFFSET 2.121964 -2.411326 3.375861
                                CHANNELS 3 Zrotation Xrotation Yrotation
                                JOINT LeftHandThumb2
                                {
                                    OFFSET 2.803212 -0.000001 -0.000002
                                    CHANNELS 3 Zrotation Xrotation Yrotation
                                    JOINT LeftHandThumb3
                                    {
                                        OFFSET 2.395929 0.000000 0.000000
                                        CHANNELS 3 Zrotation Xrotation Yrotation
                                        End Site
                                        {
                                            OFFSET 2.127676 0.000000 0.000000
                                        }
                                    }
                                }
                            }
                            JOINT LeftHandIndex1
                            {
                                OFFSET 8.680776 0.000004 3.375861
                                CHANNELS 3 Zrotation Xrotation Yrotation
                                JOINT LeftHandIndex2
                                {
                                    OFFSET 4.218180 -0.000002 0.000001
                                    CHANNELS 3 Zrotation Xrotation Yrotation
                                    JOINT LeftHandIndex3
                                    {
                                        OFFSET 2.109090 0.000001 -0.000000
                                        CHANNELS 3 Zrotation Xrotation Yrotation
                                        End Site
                                        {
                                            OFFSET 1.872952 0.000000 0.000000
                                        }
                                    }
                                }
                            }
                            JOINT LeftHandMiddle1
                            {
                                OFFSET 8.680775 0.000001 1.118862
                                CHANNELS 3 Zrotation Xrotation Yrotation
                                JOINT LeftHandMiddle2
                                {
                                    OFFSET 4.640000 0.000002 -0.000000
                                    CHANNELS 3 Zrotation Xrotation Yrotation
                                    JOINT LeftHandMiddle3
                                    {
                                        OFFSET 2.530906 0.000005 0.000000
                                        CHANNELS 3 Zrotation Xrotation Yrotation
                                        End Site
                                        {
                                            OFFSET 2.247544 0.000000 0.000000
                                        }
                                    }
                                }
                            }
                            JOINT LeftHandRing1
                            {
                                OFFSET 8.198514 -0.000004 -1.118859
                                CHANNELS 3 Zrotation Xrotation Yrotation
                                JOINT LeftHandRing2
                                {
                                    OFFSET 4.218182 -0.000003 -0.000001
                                    CHANNELS 3 Zrotation Xrotation Yrotation
                                    JOINT LeftHandRing3
                                    {
                                        OFFSET 2.109086 0.000004 0.000001
                                        CHANNELS 3 Zrotation Xrotation Yrotation
                                        End Site
                                        {
                                            OFFSET 1.872952 0.000000 0.000000
                                        }
                                    }
                                }
                            }
                            JOINT LeftHandPinky1
                            {
                                OFFSET 7.716242 0.000005 -3.375859
                                CHANNELS 3 Zrotation Xrotation Yrotation
                                JOINT LeftHandPinky2
                                {
                                    OFFSET 3.374535 0.000004 0.000002
                                    CHANNELS 3 Zrotation Xrotation Yrotation
                                    JOINT LeftHandPinky3
                                    {
                                        OFFSET 1.687275 0.000002 -0.000001
                                        CHANNELS 3 Zrotation Xrotation Yrotation
                                        End Site
                                        {
                                            OFFSET 1.498360 0.000000 0.000000
                                        }
                                    }
                                }
                            }
                        }
                    }
                }
            }
            JOINT RightShoulder
            {
                OFFSET -3.550531 15.465694 -0.908802
                CHANNELS 3 Zrotation Xrotation Yrotation
                JOINT RightArm
                {
                    OFFSET -12.513298 -0.000004 0.000001
                    CHANNELS 3 Zrotation Xrotation Yrotation
                    JOINT RightForeArm
                    {
                        OFFSET -24.225996 -0.000002 -0.000000
                        CHANNELS 3 Zrotation Xrotation Yrotation
                        JOINT RightHand
                        {
                            OFFSET -20.711401 0.000005 0.000001
                            CHANNELS 3 Zrotation Xrotation Yrotation
                            JOINT RightHandThumb1
                            {
                                OFFSET -2.121970 -2.411334 3.375861
                                CHANNELS 3 Zrotation Xrotation Yrotation
                                JOINT RightHandThumb2
                                {
                                    OFFSET -2.803210 0.000003 -0.000004
                                    CHANNELS 3 Zrotation Xrotation Yrotation
                                    JOINT RightHandThumb3
                                    {
                                        OFFSET -2.395930 -0.000001 0.000002
                                        CHANNELS 3 Zrotation Xrotation Yrotation
                                        End Site
                                        {
                                            OFFSET -2.127676 0.000000 0.000000
                                        }
                                    }
                                }
                            }
                            JOINT RightHandIndex1
                            {
                                OFFSET -8.680779 0.000001 3.375860
                                CHANNELS 3 Zrotation Xrotation Yrotation
                                JOINT RightHandIndex2
                                {
                                    OFFSET -4.218180 0.000000 -0.000000
                                    CHANNELS 3 Zrotation Xrotation Yrotation
                                    JOINT RightHandIndex3
                                    {
                                        OFFSET -2.109090 0.000001 -0.000000
                                        CHANNELS 3 Zrotation Xrotation Yrotation
                                        End Site
                                        {
                                            OFFSET -1.872952 0.000000 0.000000
                                        }
                                    }
                                }
                            }
                            JOINT RightHandMiddle1
                            {
                                OFFSET -8.680780 0.000001 1.118860
                                CHANNELS 3 Zrotation Xrotation Yrotation
                                JOINT RightHandMiddle2
                                {
                                    OFFSET -4.640000 -0.000002 0.000001
                                    CHANNELS 3 Zrotation Xrotation Yrotation
                                    JOINT RightHandMiddle3
                                    {
                                        OFFSET -2.530910 0.000001 -0.000000
                                        CHANNELS 3 Zrotation Xrotation Yrotation
                                        End Site
                                        {
                                            OFFSET -2.247544 0.000000 0.000000
                                        }
                                    }
                                }
                            }
                            JOINT RightHandRing1
                            {
                                OFFSET -8.198519 0.000005 -1.118860
                                CHANNELS 3 Zrotation Xrotation Yrotation
                                JOINT RightHandRing2
                                {
                                    OFFSET -4.218180 -0.000006 0.000000
                                    CHANNELS 3 Zrotation Xrotation Yrotation
                                    JOINT RightHandRing3
                                    {
                                        OFFSET -2.109090 0.000001 -0.000000
                                        CHANNELS 3 Zrotation Xrotation Yrotation
                                        End Site
                                        {
                                            OFFSET -1.872952 0.000000 0.000000
                                        }
                                    }
                                }
                            }
                            JOINT RightHandPinky1
                            {
                                OFFSET -7.716248 -0.000002 -3.375859
                                CHANNELS 3 Zrotation Xrotation Yrotation
                                JOINT RightHandPinky2
                                {
                                    OFFSET -3.374540 0.000000 0.000000
                                    CHANNELS 3 Zrotation Xrotation Yrotation
                                    JOINT RightHandPinky3
                                    {
                                        OFFSET -1.687270 0.000004 0.000001
                                        CHANNELS 3 Zrotation Xrotation Yrotation
                                        End Site
                                        {
                                            OFFSET -1.498360 0.000000 0.000000
                                        }
                                    }
                                }
                            }
                        }
                    }
                }
            }
        }
    }
    JOINT LeftUpLeg
    {
        OFFSET 8.880376 -0.000000 -0.000000
        CHANNELS 3 Zrotation Xrotation Yrotation
        JOINT LeftLeg
        {
            OFFSET -0.000001 -40.387405 -0.000001
            CHANNELS 3 Zrotation Xrotation Yrotation
            JOINT LeftFoot
            {
                OFFSET -0.000001 -36.911297 -0.000001
                CHANNELS 3 Zrotation Xrotation Yrotation
                JOINT LeftToeBase
                {
                    OFFSET -0.000002 -5.772240 13.320604
                    CHANNELS 3 Zrotation Xrotation Yrotation
                    End Site
                    {
                        OFFSET 0.000000 0.000000 3.552151
                    }
                }
            }
        }
    }
    JOINT RightUpLeg
    {
        OFFSET -8.880376 0.000000 0.000000
        CHANNELS 3 Zrotation Xrotation Yrotation
        JOINT RightLeg
        {
            OFFSET -0.000001 -40.387390 0.000000
            CHANNELS 3 Zrotation Xrotation Yrotation
            JOINT RightFoot
            {
                OFFSET 0.000002 -36.911297 -0.000001
                CHANNELS 3 Zrotation Xrotation Yrotation
                JOINT RightToeBase
                {
                    OFFSET 0.000001 -5.772238 13.320600
                    CHANNELS 3 Zrotation Xrotation Yrotation
                    End Site
                    {
                        OFFSET 0.000000 0.000000 3.552151
                    }
                }
            }
        }
    }
}
MOTION
Frames: 5
Frame Time: 0.013889
85.150871    83.743881    -0.972593    -4.432592    9.565444    4.221640    0.590286    -23.183720    1.499115    -0.734843    15.402336    1.523727    -0.185637    -10.099691    -3.879919    2.000797    3.479007    -4.023942    -3.466376    5.720210    -1.170943    -58.966385    40.826714    -16.016300    -14.469143    -33.026642    -25.335133    5.795673    -10.089858    4.385656    29.096292    36.009399    -40.153282    -11.899710    0.003533    23.317476    -0.000000    0.000000    -0.000000    -8.587729    17.810961    -6.776057    -8.173230    0.000002    -0.000001    -8.173251    -0.000003    -0.000002    -9.688591    8.873693    -3.201816    -9.571533    -0.000000    0.000001    -9.571540    -0.000004    0.000001    -10.395921    -8.854620    -2.610387    -10.270675    0.000001    0.000000    -10.270683    -0.000000    -0.000002    -11.519624    -17.660107    -5.523663    -10.969824    0.000002    0.000000    -10.969813    0.000003    0.000000    7.419243    6.307401    5.212401    61.133991    34.153065    13.624906    13.807310    -44.195648    19.419563    -16.004210    -16.919369    -12.293064    -39.050049    28.623138    43.922287    12.568982    -0.284936    -23.315830    -0.000000    0.000000    -0.000000    9.649320    17.761398    -0.779203    9.185277    0.000000    -0.000002    9.185297    -0.000000    -0.000000    11.592038    8.819345    -0.706423    11.453096    -0.000000    -0.000001    11.453094    0.000000    -0.000001    12.738829    -8.781974    0.943829    12.587003    0.000001    -0.000002    12.587005    0.000001    -0.000004    14.398339    -17.469484    2.341031    13.720901    0.000004    -0.000004    13.720901    0.000001    -0.000002    0.550660    -5.716735    5.780363    -0.000000    4.629708    0.000001    0.288011    -6.654763    -5.778747    -0.000000    3.561288    0.000001    3.283747    -7.820155    -12.230116    -0.000000    9.134855    -0.000001    5.350770    -6.527042    2.559230    -0.000001    3.294177    0.000000    
85.184059    83.735901    -0.926933    -4.530077    9.569773    4.296024    0.599588    -23.150757    1.524778    -0.785806    15.397664    1.560311    -0.235357    -10.154892    -3.945327    2.021359    3.437452    -4.081925    -3.499826    5.689046    -1.223875    -58.877121    40.882267    -16.206522    -14.631918    -33.576527    -25.270359    6.502207    -10.407926    4.667072    29.147224    35.973526    -40.286934    -11.862345    0.019633    23.317467    -0.000000    0.000000    -0.000000    -8.514756    17.814161    -6.606598    -8.103698    -0.000000    0.000002    -8.103698    0.000000    0.000000    -9.646331    8.874793    -3.112445    -9.529754    0.000002    0.000002    -9.529763    0.000000    0.000000    -10.367723    -8.855414    -2.765077    -10.242789    0.000002    0.000002    -10.242795    -0.000002    -0.000002    -11.504956    -17.660975    -5.837277    -10.955830    -0.000000    -0.000000    -10.955819    -0.000002    -0.000002    7.370735    6.355019    5.318917    60.953621    34.507130    13.871856    14.006931    -44.593723    19.560783    -16.494146    -17.007215    -12.254214    -39.031319    28.621771    43.973843    12.564654    -0.283069    -23.315847    -0.000000    0.000000    -0.000000    9.116086    17.787016    -1.090932    8.676861    0.000000    -0.000001    8.676867    -0.000000    -0.000001    11.077151    8.834997    -0.864664    10.944086    0.000000    -0.000000    10.944086    0.000001    -0.000001    12.223751    -8.799190    0.901031    12.077697    0.000002    -0.000000    12.077693    0.000000    -0.000000    13.865554    -17.507929    2.252745    13.211308    -0.000002    -0.000001    13.211302    -0.000000    0.000003    0.613961    -5.662012    5.686237    -0.000001    4.550328    0.000003    0.275957    -6.687335    -5.761086    0.000000    3.613396    0.000000    3.336347    -7.938509    -12.185395    0.000000    9.428969    0.000001    5.251434    -6.636876    2.419721    0.000000    3.211182    0.000000    
85.210449    83.726379    -0.882599    -4.622919    9.571728    4.338791    0.608065    -23.116833    1.548470    -0.848752    15.398901    1.598395    -0.289778    -10.213516    -4.031361    2.054861    3.402483    -4.160924    -3.521078    5.668675    -1.233847    -58.805561    40.901329    -16.374067    -14.832623    -34.081100    -25.294725    7.258058    -10.607686    4.893927    29.120703    35.991386    -40.304272    -11.864659    0.018631    23.317482    -0.000000    0.000000    -0.000000    -8.556865    17.812319    -6.191153    -8.143827    -0.000002    0.000002    -8.143832    -0.000000    0.000002    -9.667149    8.874254    -2.907951    -9.550343    -0.000001    -0.000001    -9.550333    -0.000001    -0.000001    -10.378641    -8.855109    -2.898887    -10.253592    -0.000001    0.000003    -10.253589    -0.000001    -0.000000    -11.506010    -17.660915    -6.101851    -10.956842    -0.000001    -0.000000    -10.956831    0.000009    -0.000001    7.279819    6.417323    5.485680    60.702309    35.062260    14.194921    14.148310    -44.768551    19.694462    -16.884335    -16.838753    -12.525884    -38.961613    28.664791    43.996929    12.582434    -0.290739    -23.315771    -0.000000    0.000000    -0.000000    8.628271    17.809177    -1.427542    8.211871    -0.000000    -0.000001    8.211882    -0.000000    -0.000000    10.581149    8.849411    -1.031281    10.453775    -0.000001    -0.000001    10.453776    -0.000001    0.000000    11.715048    -8.815506    0.852227    11.574711    -0.000001    0.000000    11.574711    -0.000002    -0.000002    13.326241    -17.545387    2.148513    12.695674    0.000000    -0.000003    12.695667    -0.000005    -0.000001    0.680240    -5.612847    5.604324    -0.000000    4.498409    -0.000000    0.279863    -6.733930    -5.722208    0.000000    3.658031    -0.000001    3.389808    -8.086047    -12.135565    0.000000    9.778328    -0.000001    5.136699    -6.733439    2.296331    -0.000000    3.106468    0.000001    
85.243851    83.713310    -0.820051    -4.741920    9.577157    4.405753    0.618754    -23.064379    1.579065    -0.946265    15.398011    1.651976    -0.376215    -10.318523    -4.135201    2.101470    3.354969    -4.252800    -3.543683    5.655226    -1.268833    -58.674446    40.938660    -16.584261    -15.073791    -34.690430    -25.324503    8.000909    -10.840795    5.291049    29.077171    36.020458    -40.369141    -11.868111    0.017152    23.317459    -0.000000    0.000000    -0.000000    -8.763808    17.803139    -5.302773    -8.341081    -0.000002    -0.000001    -8.341068    0.000004    -0.000002    -9.765828    8.871676    -2.480185    -9.647885    0.000000    -0.000002    -9.647885    -0.000002    -0.000001    -10.426885    -8.853758    -3.047123    -10.301291    -0.000001    0.000002    -10.301281    0.000002    -0.000002    -11.503752    -17.661043    -6.382786    -10.954699    -0.000005    -0.000000    -10.954679    0.000003    -0.000001    7.149867    6.480757    5.647779    60.341995    35.882999    14.665241    14.428365    -45.065758    19.973070    -17.353727    -16.617079    -12.895600    -38.879818    28.702623    44.069435    12.598171    -0.297516    -23.315680    -0.000000    0.000000    -0.000000    7.924169    17.839024    -1.851098    7.540915    0.000000    0.000000    7.540915    0.000000    -0.000000    9.891870    8.868351    -1.244670    9.772440    0.000001    -0.000000    9.772437    0.000001    -0.000000    11.020630    -8.836675    0.790257    10.888194    0.000005    -0.000000    10.888198    -0.000000    0.000002    12.602448    -17.593336    2.019179    12.003951    0.000002    0.000003    12.003958    0.000002    0.000001    0.766905    -5.556559    5.515476    0.000000    4.434722    -0.000000    0.285525    -6.804271    -5.690068    -0.000000    3.714021    0.000000    3.446701    -8.325452    -12.085916    -0.000000    10.332659    0.000002    4.986607    -6.901975    2.151468    0.000001    2.947462    -0.000002    
85.269424    83.700775    -0.771780    -4.820030    9.585235    4.433128    0.631627    -23.023123    1.614632    -1.032002    15.389265    1.706655    -0.444270    -10.373709    -4.222959    2.116192    3.348213    -4.330526    -3.603354    5.627717    -1.299562    -58.541920    40.932087    -16.738873    -15.215975    -35.117058    -25.306065    8.499893    -11.054988    5.309175    28.999702    36.073288    -40.373287    -11.889753    0.007830    23.317459    -0.000000    0.000000    -0.000000    -8.905802    17.796717    -4.634204    -8.476409    0.000002    0.000001    -8.476403    0.000002    0.000001    -9.812985    8.870437    -2.160332    -9.694468    -0.000001    -0.000000    -9.694484    -0.000002    0.000002    -10.429151    -8.853697    -3.134803    -10.303497    0.000001    0.000002    -10.303509    -0.000001    -0.000002    -11.459617    -17.663639    -6.544057    -10.912541    -0.000001    -0.000000    -10.912544    0.000006    -0.000008    7.056437    6.498054    5.757678    60.044083    36.501633    15.058122    14.755108    -45.492859    20.269341    -17.964600    -16.583096    -13.293987    -38.894112    28.656506    44.196705    12.574023    -0.287107    -23.315807    -0.000000    0.000000    -0.000000    7.277717    17.864193    -2.173560    6.925067    -0.000000    -0.000000    6.925057    0.000000    0.000000    9.288944    8.883878    -1.411956    9.176543    -0.000001    0.000001    9.176537    -0.000000    -0.000000    10.427896    -8.853734    0.745755    10.302270    -0.000005    0.000002    10.302275    0.000001    -0.000003    11.999475    -17.631260    1.930017    11.428010    -0.000003    0.000000    11.428005    0.000003    -0.000002    0.818035    -5.505949    5.469668    -0.000000    4.375767    0.000000    0.295586    -6.856968    -5.666241    -0.000000    3.762672    0.000000    3.474430    -8.522648    -12.050743    -0.000000    10.782484    0.000001    4.877525    -7.042346    2.064245    -0.000001    2.833558    0.000001    
